<?xml version="1.0" encoding="utf-8"?>
<!-- Generator: Adobe Illustrator 22.1.0, SVG Export Plug-In . SVG Version: 6.00 Build 0)  -->
<svg version="1.1" id="圖層_1" xmlns="http://www.w3.org/2000/svg" xmlns:xlink="http://www.w3.org/1999/xlink" x="0px" y="0px"
	 viewBox="0 0 132 50" style="enable-background:new 0 0 132 50;" xml:space="preserve">
<style type="text/css">
	.st0{fill:none;stroke:#7D525F;stroke-width:2.1;stroke-miterlimit:10;}
	.st1{fill:#7D525F;}
</style>
<g>
	<path class="st0" d="M3,47V3h126.1v44H3z"/>
	<g>
		<g>
			<g>
				<g>
					<path class="st1" d="M17.9,36.5c-1.7,0-3.2-0.3-4.4-0.8v-0.9c0.5,0.3,1.2,0.5,2,0.6c0.8,0.2,1.5,0.2,2.3,0.2
						c1.9,0,3.2-0.4,4-1.1c0.8-0.8,1.2-2,1.2-3.7V13.5h1v17.3c0,1.9-0.5,3.4-1.5,4.3C21.5,36,20,36.5,17.9,36.5L17.9,36.5z"/>
					<path class="st1" d="M31.8,13.5h14.4v0.9H32.8v10h12.1v0.9H32.8v10h13.4v0.9H31.8V13.5z"/>
					<path class="st1" d="M53.2,13.5h1.1l15.1,21.3V13.5h1v22.7h-1.1L54.2,14.8v21.3h-1V13.5z"/>
					<path class="st1" d="M78.4,13.5h1.1l15.1,21.3V13.5h1v22.7h-1.1L79.4,14.8v21.3h-1V13.5z"/>
					<path class="st1" d="M109.5,27.6l-8.1-14.2h1l7.5,13.2l7.5-13.2h1l-8.1,14.2v8.5h-1L109.5,27.6z"/>
				</g>
			</g>
		</g>
	</g>
</g>
</svg>
